<?xml version="1.0" standalone="no"?>
<!DOCTYPE svg PUBLIC "-//W3C//DTD SVG 20010904//EN"
 "http://www.w3.org/TR/2001/REC-SVG-20010904/DTD/svg10.dtd">
<svg version="1.0" xmlns="http://www.w3.org/2000/svg"
 width="260.000000pt" height="260.000000pt" viewBox="0 0 260.000000 260.000000"
 preserveAspectRatio="xMidYMid meet">
<metadata>
Created by potrace 1.11, written by Peter Selinger 2001-2013
</metadata>
<g transform="translate(0.000000,260.000000) scale(0.100000,-0.100000)"
fill="#000000" stroke="none">
<path d="M116 2580 c-50 -25 -93 -74 -106 -119 -12 -42 -14 -1931 -2 -1931 17
1 82 69 105 110 13 25 45 80 69 123 l45 78 83 -153 c46 -84 92 -165 102 -180
11 -16 16 -28 12 -28 -3 0 -1 -6 5 -13 6 -8 67 -115 135 -238 l124 -224 714
-2 c491 -2 726 1 755 8 89 23 108 52 283 405 l160 325 -2 863 -3 863 -29 41
c-16 23 -45 52 -65 65 l-36 22 -552 3 c-304 1 -553 0 -553 -4 0 -3 7 -20 15
-37 8 -18 37 -88 65 -157 29 -69 54 -130 56 -136 3 -6 67 -10 184 -10 99 1
180 -2 180 -7 0 -6 -146 -284 -155 -295 -2 -2 -29 10 -61 26 -88 44 -196 73
-298 79 -50 3 -94 8 -98 12 -5 5 -165 385 -212 504 l-10 27 -436 0 c-410 -1
-437 -2 -474 -20z"/>
</g>
</svg>
