<svg width="782" height="260" viewBox="0 0 782 260" fill="none" xmlns="http://www.w3.org/2000/svg">
<path d="M355.434 241.4C355.962 240.944 356.514 240.5 357.09 240.068C359.37 238.268 361.338 236.6 362.994 235.064C364.674 233.528 366.15 231.836 367.422 229.988C368.718 228.14 369.366 226.352 369.366 224.624C369.366 223.4 369.066 222.476 368.466 221.852C367.866 221.204 367.11 220.88 366.198 220.88C364.638 220.88 363.258 221.396 362.058 222.428C360.882 223.46 359.934 225.044 359.214 227.18H357.954C358.146 226.004 358.362 224.996 358.602 224.156C358.866 223.316 359.226 222.644 359.682 222.14C360.522 221.3 361.614 220.616 362.958 220.088C364.326 219.536 365.742 219.26 367.206 219.26C369.15 219.26 370.83 219.656 372.246 220.448C373.686 221.24 374.406 222.644 374.406 224.66C374.406 226.556 373.674 228.464 372.21 230.384C370.77 232.304 369.15 233.996 367.35 235.46C365.55 236.924 363.402 238.544 360.906 240.32C359.73 241.136 358.902 241.736 358.422 242.12H365.874C367.314 242.12 368.478 241.784 369.366 241.112C370.278 240.416 370.854 239.432 371.094 238.16H372.174L371.706 240.86C371.538 241.724 371.19 242.42 370.662 242.948C370.134 243.476 369.294 243.74 368.142 243.74H355.038L355.434 241.4ZM383.767 244.46C378.727 244.46 376.207 241.724 376.207 236.252C376.207 233.66 376.603 231.068 377.395 228.476C378.211 225.86 379.519 223.676 381.319 221.924C383.119 220.148 385.411 219.26 388.195 219.26C393.259 219.26 395.791 222.008 395.791 227.504C395.791 230.096 395.383 232.688 394.567 235.28C393.751 237.872 392.443 240.056 390.643 241.832C388.843 243.584 386.551 244.46 383.767 244.46ZM384.055 242.84C385.351 242.84 386.527 241.916 387.583 240.068C388.639 238.22 389.467 235.964 390.067 233.3C390.667 230.636 390.967 228.176 390.967 225.92C390.967 222.56 389.947 220.88 387.907 220.88C386.611 220.88 385.435 221.816 384.379 223.688C383.323 225.536 382.495 227.804 381.895 230.492C381.319 233.156 381.031 235.616 381.031 237.872C381.031 239.576 381.271 240.836 381.751 241.652C382.255 242.444 383.023 242.84 384.055 242.84ZM396.813 241.4C397.341 240.944 397.893 240.5 398.469 240.068C400.749 238.268 402.717 236.6 404.373 235.064C406.053 233.528 407.529 231.836 408.801 229.988C410.097 228.14 410.745 226.352 410.745 224.624C410.745 223.4 410.445 222.476 409.845 221.852C409.245 221.204 408.489 220.88 407.577 220.88C406.017 220.88 404.637 221.396 403.437 222.428C402.261 223.46 401.313 225.044 400.593 227.18H399.333C399.525 226.004 399.741 224.996 399.981 224.156C400.245 223.316 400.605 222.644 401.061 222.14C401.901 221.3 402.993 220.616 404.337 220.088C405.705 219.536 407.121 219.26 408.585 219.26C410.529 219.26 412.209 219.656 413.625 220.448C415.065 221.24 415.785 222.644 415.785 224.66C415.785 226.556 415.053 228.464 413.589 230.384C412.149 232.304 410.529 233.996 408.729 235.46C406.929 236.924 404.781 238.544 402.285 240.32C401.109 241.136 400.281 241.736 399.801 242.12H407.253C408.693 242.12 409.857 241.784 410.745 241.112C411.657 240.416 412.233 239.432 412.473 238.16H413.553L413.085 240.86C412.917 241.724 412.569 242.42 412.041 242.948C411.513 243.476 410.673 243.74 409.521 243.74H396.417L396.813 241.4ZM418.594 243.74L422.014 224.228L418.522 226.244L417.874 225.128L424.318 219.98H427.45L423.274 243.74H418.594Z" fill="#FFF5E4"/>
<path d="M95.5 0.5H44.5V50.5H95.5V0.5Z" fill="#FDA9AA" stroke="black" stroke-linecap="round" stroke-linejoin="round"/>
<path d="M95.5 50.5L58.5 109.5L116.5 192.5H58.5L0.5 111.5L44.5 50.5H95.5Z" fill="#FFF4E3" stroke="black" stroke-linecap="round" stroke-linejoin="round"/>
<path d="M44.5 0.5L0.5 65.5V111.5L44.5 50.5V0.5Z" fill="#2F1C3D" stroke="black" stroke-linecap="round" stroke-linejoin="round"/>
<path d="M81.5 72.4999L111.5 115.5L171.5 14.02C173.933 9.90198 177.398 6.48944 181.552 4.11859C185.706 1.74774 190.407 0.500432 195.19 0.499939H224.5L116.5 192.5L58.5 109.5L81.5 72.4999Z" fill="#FDA9AA" stroke="black" stroke-linecap="round" stroke-linejoin="round"/>
<path d="M116.5 192.5C117.64 193.65 146.73 193.04 160.45 192.69C162.589 192.643 164.677 192.025 166.497 190.899C168.316 189.774 169.802 188.183 170.8 186.29L226.5 81.4999L231.5 89.4999L254.5 50.4999L224.5 0.499939L116.5 192.5Z" fill="#7A99DA" stroke="black" stroke-linecap="round" stroke-linejoin="round"/>
<path d="M207.5 118.5L242.5 165.5L326.5 0.499939H295.09C290.082 0.501355 285.17 1.86821 280.881 4.45306C276.593 7.03791 273.09 10.7428 270.75 15.1699L231.5 89.4999L226.5 81.4999L207.5 118.5Z" fill="#2F1C3D" stroke="black" stroke-linecap="round" stroke-linejoin="round"/>
<path d="M326.5 0.499939L372.5 111.5L395.5 68.4999H374.5L389.5 36.4999H444.5L366.5 193.5L324.5 108.5L295.96 159.34C294.91 161.209 293.381 162.765 291.531 163.848C289.68 164.931 287.574 165.501 285.43 165.5H242.5L326.5 0.499939Z" fill="#FDA9AA" stroke="black" stroke-linecap="round" stroke-linejoin="round"/>
<path d="M303.5 146.5L329.5 193.5H366.5L324.5 108.5L303.5 146.5Z" fill="#2F1C3D" stroke="black" stroke-linecap="round" stroke-linejoin="round"/>
<path d="M389.5 36.4999L372.5 0.499939H557.5L539.5 35.4999H498.82C496.922 35.5011 495.063 36.0327 493.452 37.0346C491.84 38.0365 490.541 39.4687 489.7 41.1699L417.82 186.77C416.824 188.789 415.283 190.49 413.371 191.679C411.459 192.868 409.252 193.499 407 193.5H366.5L441.31 42.9301C441.648 42.2505 441.806 41.4957 441.77 40.7377C441.733 39.9798 441.504 39.2439 441.104 38.5995C440.703 37.9552 440.143 37.424 439.479 37.0566C438.816 36.6891 438.069 36.4974 437.31 36.4999H389.5Z" fill="#7A99DA" stroke="black" stroke-linecap="round" stroke-linejoin="round"/>
<path d="M372.5 0.5L360.5 34.5L374.5 68.5L389.5 36.5L372.5 0.5Z" fill="#FFF4E3" stroke="black" stroke-linecap="round" stroke-linejoin="round"/>
<path d="M476.5 68.4999H545.5L539.5 35.4999H500.28C497.947 35.5002 495.662 36.1566 493.685 37.3945C491.708 38.6323 490.119 40.4017 489.1 42.4999L476.5 68.4999Z" fill="#FDA9AA" stroke="black" stroke-linecap="round" stroke-linejoin="round"/>
<path d="M557.5 0.5L564.5 31.5L545.5 68.5L539.5 35.5L557.5 0.5Z" fill="#2F1C3D" stroke="black" stroke-linecap="round" stroke-linejoin="round"/>
<path d="M523.5 192.5L606.07 16.35C608.291 11.613 611.815 7.60624 616.23 4.79926C620.645 1.99227 625.768 0.501046 631 0.499939H657.5L567.5 193.5L523.5 192.5Z" fill="#FFF4E3" stroke="black" stroke-linecap="round" stroke-linejoin="round"/>
<path d="M567.5 193.5H601.67C603.998 193.496 606.274 192.819 608.226 191.55C610.178 190.282 611.721 188.476 612.67 186.35L659.5 81.4999L669.5 101.5L688.34 59.4999L657.5 0.499939L567.5 193.5Z" fill="#FDA9AA" stroke="black" stroke-linecap="round" stroke-linejoin="round"/>
<path d="M732.37 0.499939H760.5L680.5 193.5L641.5 121.5L659.5 81.4999L669.5 101.5L707.23 16.83C709.393 11.9692 712.919 7.8396 717.381 4.94135C721.843 2.04309 727.05 0.50038 732.37 0.499939Z" fill="#7A99DA" stroke="black" stroke-linecap="round" stroke-linejoin="round"/>
<path d="M760.5 0.499939L781.5 37.4999L728.31 184.72C727.487 187.016 725.988 189.009 724.01 190.437C722.033 191.865 719.669 192.661 717.23 192.72L680.5 193.53L760.5 0.499939Z" fill="#2F1C3D" stroke="black" stroke-linecap="round" stroke-linejoin="round"/>
<path d="M497.5 76.5L443.5 179.5H492.5L543.5 76.5H497.5Z" fill="#7A99DA" stroke="black" stroke-linecap="round" stroke-linejoin="round"/>
<path d="M497.5 74.5L502.5 158.5L492.34 179.5H443.34L497.5 74.5Z" fill="#2F1C3D" stroke="black" stroke-linecap="round" stroke-linejoin="round"/>
<path d="M363 163.5C385.92 163.5 404.5 144.92 404.5 122C404.5 99.0802 385.92 80.5 363 80.5C340.08 80.5 321.5 99.0802 321.5 122C321.5 144.92 340.08 163.5 363 163.5Z" fill="#FFF5E4" stroke="black" stroke-linecap="round" stroke-linejoin="round"/>
<path d="M123 121.5C139.292 121.5 152.5 108.292 152.5 92C152.5 75.7076 139.292 62.5 123 62.5C106.708 62.5 93.5 75.7076 93.5 92C93.5 108.292 106.708 121.5 123 121.5Z" fill="#2F1C3D" stroke="black" stroke-linecap="round" stroke-linejoin="round"/>
<path d="M523.84 116.5C540.132 116.5 553.34 103.292 553.34 87C553.34 70.7076 540.132 57.5 523.84 57.5C507.548 57.5 494.34 70.7076 494.34 87C494.34 103.292 507.548 116.5 523.84 116.5Z" fill="#FFF4E3" stroke="black" stroke-linecap="round" stroke-linejoin="round"/>
<path d="M535.34 167.5C529.34 160.5 523.34 146.21 523.34 131C523.342 120.457 526.099 110.098 531.338 100.948C536.577 91.7993 544.116 84.1777 553.208 78.8396C562.299 73.5014 572.628 70.6316 583.17 70.5149C593.712 70.3981 604.102 73.0385 613.31 78.1741C622.518 83.3096 630.223 90.7618 635.664 99.7927C641.104 108.824 644.089 119.12 644.325 129.66C644.56 140.2 642.037 150.619 637.006 159.884C631.974 169.149 624.609 176.938 615.64 182.48" stroke="black" stroke-miterlimit="10"/>
<path d="M186.34 156.5C176.64 165.08 165.34 169.5 151.34 169.5C137.35 169.514 123.881 164.198 113.674 154.631C103.466 145.065 97.2867 131.968 96.3947 118.007C95.5027 104.046 99.9645 90.269 108.872 79.4814C117.779 68.6937 130.462 61.7059 144.34 59.9399" stroke="#FFF4E3" stroke-linecap="round" stroke-linejoin="round"/>
</svg>
