<svg width="782" height="260" viewBox="0 0 782 260" fill="none" xmlns="http://www.w3.org/2000/svg">
<path d="M366.696 247.74H350.424C350.496 246.54 350.772 245.472 351.252 244.536C351.756 243.576 352.38 242.724 353.124 241.98C353.892 241.212 354.744 240.528 355.68 239.928C356.616 239.304 357.564 238.728 358.524 238.2C359.748 237.528 360.948 236.88 362.124 236.256C363.3 235.608 364.344 234.936 365.256 234.24C366.168 233.544 366.9 232.776 367.452 231.936C368.004 231.072 368.28 230.088 368.28 228.984C368.28 227.328 367.764 226.032 366.732 225.096C365.724 224.136 364.392 223.656 362.736 223.656C361.632 223.656 360.648 223.848 359.784 224.232C358.944 224.616 358.212 225.144 357.588 225.816C356.988 226.464 356.508 227.244 356.148 228.156C355.812 229.068 355.608 230.052 355.536 231.108H354.168C354.216 229.86 354.444 228.708 354.852 227.652C355.26 226.572 355.836 225.66 356.58 224.916C357.324 224.148 358.212 223.548 359.244 223.116C360.276 222.684 361.428 222.468 362.7 222.468C363.684 222.468 364.596 222.612 365.436 222.9C366.3 223.188 367.044 223.608 367.668 224.16C368.292 224.712 368.772 225.384 369.108 226.176C369.468 226.968 369.648 227.88 369.648 228.912C369.648 230.112 369.42 231.156 368.964 232.044C368.508 232.932 367.908 233.724 367.164 234.42C366.42 235.116 365.568 235.74 364.608 236.292C363.648 236.844 362.676 237.384 361.692 237.912C360.66 238.464 359.628 239.028 358.596 239.604C357.564 240.18 356.604 240.816 355.716 241.512C354.828 242.184 354.06 242.94 353.412 243.78C352.764 244.596 352.308 245.52 352.044 246.552H366.912L366.696 247.74ZM379.14 248.172C377.7 248.172 376.512 247.92 375.576 247.416C374.64 246.888 373.896 246.216 373.344 245.4C372.816 244.56 372.444 243.648 372.228 242.664C372.036 241.656 371.94 240.66 371.94 239.676C371.94 238.62 372.024 237.468 372.192 236.22C372.36 234.948 372.624 233.676 372.984 232.404C373.368 231.108 373.848 229.872 374.424 228.696C375 227.496 375.684 226.44 376.476 225.528C377.292 224.592 378.228 223.848 379.284 223.296C380.34 222.744 381.528 222.468 382.848 222.468C384.144 222.468 385.248 222.696 386.16 223.152C387.096 223.584 387.852 224.184 388.428 224.952C389.028 225.696 389.46 226.584 389.724 227.616C390.012 228.648 390.156 229.752 390.156 230.928C390.156 231.984 390.072 233.148 389.904 234.42C389.736 235.668 389.472 236.928 389.112 238.2C388.752 239.472 388.284 240.708 387.708 241.908C387.132 243.108 386.436 244.176 385.62 245.112C384.804 246.024 383.856 246.768 382.776 247.344C381.696 247.896 380.484 248.172 379.14 248.172ZM378.852 246.984C380.076 246.984 381.168 246.72 382.128 246.192C383.112 245.64 383.964 244.932 384.684 244.068C385.428 243.18 386.052 242.172 386.556 241.044C387.084 239.916 387.516 238.764 387.852 237.588C388.188 236.388 388.428 235.212 388.572 234.06C388.716 232.908 388.788 231.864 388.788 230.928C388.788 229.92 388.692 228.972 388.5 228.084C388.308 227.196 387.984 226.428 387.528 225.78C387.072 225.108 386.472 224.592 385.728 224.232C384.984 223.848 384.06 223.656 382.956 223.656C381.444 223.656 380.088 224.112 378.888 225.024C377.688 225.936 376.668 227.148 375.828 228.66C375.012 230.148 374.388 231.852 373.956 233.772C373.524 235.692 373.308 237.66 373.308 239.676C373.308 240.54 373.404 241.404 373.596 242.268C373.788 243.132 374.1 243.924 374.532 244.644C374.988 245.34 375.564 245.904 376.26 246.336C376.98 246.768 377.844 246.984 378.852 246.984ZM406.704 247.74H390.432C390.504 246.54 390.78 245.472 391.26 244.536C391.764 243.576 392.388 242.724 393.132 241.98C393.9 241.212 394.752 240.528 395.688 239.928C396.624 239.304 397.572 238.728 398.532 238.2C399.756 237.528 400.956 236.88 402.132 236.256C403.308 235.608 404.352 234.936 405.264 234.24C406.176 233.544 406.908 232.776 407.46 231.936C408.012 231.072 408.288 230.088 408.288 228.984C408.288 227.328 407.772 226.032 406.74 225.096C405.732 224.136 404.4 223.656 402.744 223.656C401.64 223.656 400.656 223.848 399.792 224.232C398.952 224.616 398.22 225.144 397.596 225.816C396.996 226.464 396.516 227.244 396.156 228.156C395.82 229.068 395.616 230.052 395.544 231.108H394.176C394.224 229.86 394.452 228.708 394.86 227.652C395.268 226.572 395.844 225.66 396.588 224.916C397.332 224.148 398.22 223.548 399.252 223.116C400.284 222.684 401.436 222.468 402.708 222.468C403.692 222.468 404.604 222.612 405.444 222.9C406.308 223.188 407.052 223.608 407.676 224.16C408.3 224.712 408.78 225.384 409.116 226.176C409.476 226.968 409.656 227.88 409.656 228.912C409.656 230.112 409.428 231.156 408.972 232.044C408.516 232.932 407.916 233.724 407.172 234.42C406.428 235.116 405.576 235.74 404.616 236.292C403.656 236.844 402.684 237.384 401.7 237.912C400.668 238.464 399.636 239.028 398.604 239.604C397.572 240.18 396.612 240.816 395.724 241.512C394.836 242.184 394.068 242.94 393.42 243.78C392.772 244.596 392.316 245.52 392.052 246.552H406.92L406.704 247.74ZM416.376 227.436C418.008 227.196 419.424 226.68 420.624 225.888C421.824 225.072 423 224.076 424.152 222.9H425.52L420.192 247.74H418.608L423.396 225.456L423.324 225.384C422.172 226.392 420.972 227.148 419.724 227.652C418.5 228.156 417.3 228.504 416.124 228.696L416.376 227.436Z" fill="#FFF5E4"/>
<path d="M95.5 0.5H44.5V50.5H95.5V0.5Z" fill="#FDA9AA" stroke="black" stroke-linecap="round" stroke-linejoin="round"/>
<path d="M95.5 50.5L58.5 109.5L116.5 192.5H58.5L0.5 111.5L44.5 50.5H95.5Z" fill="#FFF4E3" stroke="black" stroke-linecap="round" stroke-linejoin="round"/>
<path d="M44.5 0.5L0.5 65.5V111.5L44.5 50.5V0.5Z" fill="#2F1C3D" stroke="black" stroke-linecap="round" stroke-linejoin="round"/>
<path d="M81.5 72.4999L111.5 115.5L171.5 14.02C173.933 9.90198 177.398 6.48944 181.552 4.11859C185.706 1.74774 190.407 0.500432 195.19 0.499939H224.5L116.5 192.5L58.5 109.5L81.5 72.4999Z" fill="#FDA9AA" stroke="black" stroke-linecap="round" stroke-linejoin="round"/>
<path d="M116.5 192.5C117.64 193.65 146.73 193.04 160.45 192.69C162.589 192.643 164.677 192.025 166.497 190.899C168.316 189.774 169.802 188.183 170.8 186.29L226.5 81.4999L231.5 89.4999L254.5 50.4999L224.5 0.499939L116.5 192.5Z" fill="#7A99DA" stroke="black" stroke-linecap="round" stroke-linejoin="round"/>
<path d="M207.5 118.5L242.5 165.5L326.5 0.499939H295.09C290.082 0.501355 285.17 1.86821 280.881 4.45306C276.593 7.03791 273.09 10.7428 270.75 15.1699L231.5 89.4999L226.5 81.4999L207.5 118.5Z" fill="#2F1C3D" stroke="black" stroke-linecap="round" stroke-linejoin="round"/>
<path d="M326.5 0.499939L372.5 111.5L395.5 68.4999H374.5L389.5 36.4999H444.5L366.5 193.5L324.5 108.5L295.96 159.34C294.91 161.209 293.381 162.765 291.531 163.848C289.68 164.931 287.574 165.501 285.43 165.5H242.5L326.5 0.499939Z" fill="#FDA9AA" stroke="black" stroke-linecap="round" stroke-linejoin="round"/>
<path d="M303.5 146.5L329.5 193.5H366.5L324.5 108.5L303.5 146.5Z" fill="#2F1C3D" stroke="black" stroke-linecap="round" stroke-linejoin="round"/>
<path d="M389.5 36.4999L372.5 0.499939H557.5L539.5 35.4999H498.82C496.922 35.5011 495.063 36.0327 493.452 37.0346C491.84 38.0365 490.541 39.4687 489.7 41.1699L417.82 186.77C416.824 188.789 415.283 190.49 413.371 191.679C411.459 192.868 409.252 193.499 407 193.5H366.5L441.31 42.9301C441.648 42.2505 441.806 41.4957 441.77 40.7377C441.733 39.9798 441.504 39.2439 441.104 38.5995C440.703 37.9552 440.143 37.424 439.479 37.0566C438.816 36.6891 438.069 36.4974 437.31 36.4999H389.5Z" fill="#7A99DA" stroke="black" stroke-linecap="round" stroke-linejoin="round"/>
<path d="M372.5 0.5L360.5 34.5L374.5 68.5L389.5 36.5L372.5 0.5Z" fill="#FFF4E3" stroke="black" stroke-linecap="round" stroke-linejoin="round"/>
<path d="M476.5 68.4999H545.5L539.5 35.4999H500.28C497.947 35.5002 495.662 36.1566 493.685 37.3945C491.708 38.6323 490.119 40.4017 489.1 42.4999L476.5 68.4999Z" fill="#FDA9AA" stroke="black" stroke-linecap="round" stroke-linejoin="round"/>
<path d="M557.5 0.5L564.5 31.5L545.5 68.5L539.5 35.5L557.5 0.5Z" fill="#2F1C3D" stroke="black" stroke-linecap="round" stroke-linejoin="round"/>
<path d="M523.5 192.5L606.07 16.35C608.291 11.613 611.815 7.60624 616.23 4.79926C620.645 1.99227 625.768 0.501046 631 0.499939H657.5L567.5 193.5L523.5 192.5Z" fill="#FFF4E3" stroke="black" stroke-linecap="round" stroke-linejoin="round"/>
<path d="M567.5 193.5H601.67C603.998 193.496 606.274 192.819 608.226 191.55C610.178 190.282 611.721 188.476 612.67 186.35L659.5 81.4999L669.5 101.5L688.34 59.4999L657.5 0.499939L567.5 193.5Z" fill="#FDA9AA" stroke="black" stroke-linecap="round" stroke-linejoin="round"/>
<path d="M732.37 0.499939H760.5L680.5 193.5L641.5 121.5L659.5 81.4999L669.5 101.5L707.23 16.83C709.393 11.9692 712.919 7.8396 717.381 4.94135C721.843 2.04309 727.05 0.50038 732.37 0.499939V0.499939Z" fill="#7A99DA" stroke="black" stroke-linecap="round" stroke-linejoin="round"/>
<path d="M760.5 0.499939L781.5 37.4999L728.31 184.72C727.487 187.016 725.988 189.009 724.01 190.437C722.033 191.865 719.669 192.661 717.23 192.72L680.5 193.53L760.5 0.499939Z" fill="#2F1C3D" stroke="black" stroke-linecap="round" stroke-linejoin="round"/>
<path d="M497.5 76.5L443.5 179.5H492.5L543.5 76.5H497.5Z" fill="#7A99DA" stroke="black" stroke-linecap="round" stroke-linejoin="round"/>
<path d="M497.5 74.5L502.5 158.5L492.34 179.5H443.34L497.5 74.5Z" fill="#2F1C3D" stroke="black" stroke-linecap="round" stroke-linejoin="round"/>
<path d="M363 163.5C385.92 163.5 404.5 144.92 404.5 122C404.5 99.0802 385.92 80.5 363 80.5C340.08 80.5 321.5 99.0802 321.5 122C321.5 144.92 340.08 163.5 363 163.5Z" fill="#FFF5E4" stroke="black" stroke-linecap="round" stroke-linejoin="round"/>
<path d="M123 121.5C139.292 121.5 152.5 108.292 152.5 92C152.5 75.7076 139.292 62.5 123 62.5C106.708 62.5 93.5 75.7076 93.5 92C93.5 108.292 106.708 121.5 123 121.5Z" fill="#2F1C3D" stroke="black" stroke-linecap="round" stroke-linejoin="round"/>
<path d="M523.84 116.5C540.132 116.5 553.34 103.292 553.34 87C553.34 70.7076 540.132 57.5 523.84 57.5C507.548 57.5 494.34 70.7076 494.34 87C494.34 103.292 507.548 116.5 523.84 116.5Z" fill="#FFF4E3" stroke="black" stroke-linecap="round" stroke-linejoin="round"/>
<path d="M535.34 167.5C529.34 160.5 523.34 146.21 523.34 131C523.342 120.457 526.099 110.098 531.338 100.948C536.577 91.7993 544.116 84.1777 553.208 78.8396C562.299 73.5014 572.628 70.6316 583.17 70.5149C593.712 70.3981 604.102 73.0385 613.31 78.1741C622.518 83.3096 630.223 90.7618 635.664 99.7927C641.104 108.824 644.089 119.12 644.325 129.66C644.56 140.2 642.037 150.619 637.006 159.884C631.974 169.149 624.609 176.938 615.64 182.48" stroke="black" stroke-miterlimit="10"/>
<path d="M186.34 156.5C176.64 165.08 165.34 169.5 151.34 169.5C137.35 169.514 123.881 164.198 113.674 154.631C103.466 145.065 97.2867 131.968 96.3947 118.007C95.5027 104.046 99.9645 90.269 108.872 79.4814C117.779 68.6937 130.462 61.7059 144.34 59.9399" stroke="#FFF4E3" stroke-linecap="round" stroke-linejoin="round"/>
</svg>
